# xmcd
#
# Track frame offsets:
#	150
#	11986
#	12647
#	21905
#	38227
#	39047
#	51297
#	64760
#	80510
#	91883
#	106294
#	107089
#	118454
#
# Disc length: 1757 seconds
#
# Revision: 1
# Processed by: cddbd v1.5.2PL0 Copyright (c) Steve Scherf et al.
# Submitted via: audiograbber 1.83.01
#
DISCID=aa06db0d
DTITLE=Various Artist - Hillcrest #09
DYEAR=1900
DGENRE=Country
TTITLE0=Gary Fjellgard and Valdi - Heartbroken Hero
TTITLE1=Country Generations - liner
TTITLE2=Country Generations - Over Before It Started
TTITLE3=Gregg Storm - Heart Of Steel
TTITLE4=Magic Car - liner
TTITLE5=Magic Car - Phobic Phoebe
TTITLE6=Ronnie Masters - Every Night You Make My Day
TTITLE7=Danny Mac - Buffalo Hunter
TTITLE8=Roxanne Legere - Can't Believe That I Have You
TTITLE9=Johnny Penn - How Can I Love Her
TTITLE10=Barney Cummings - Liner
TTITLE11=Barney Cummings - That Ain't All
TTITLE12=Don Walker - Her And I
EXTD=
EXTT0=
EXTT1=
EXTT2=
EXTT3=
EXTT4=
EXTT5=
EXTT6=
EXTT7=
EXTT8=
EXTT9=
EXTT10=
EXTT11=
EXTT12=
PLAYORDER=
